<svg xmlns="http://www.w3.org/2000/svg" xmlns:xlink="http://www.w3.org/1999/xlink" width="500" zoomAndPan="magnify" viewBox="0 0 375 374.999991" height="500" preserveAspectRatio="xMidYMid meet" version="1.0"><defs><g/><clipPath id="6fd4549bd5"><path d="M 219 135 L 249 135 L 249 165 L 219 165 Z M 219 135 " clip-rule="nonzero"/></clipPath><clipPath id="0a5721c447"><path d="M 214.082031 150.8125 L 234.621094 127.925781 L 255.832031 146.964844 L 235.292969 169.847656 Z M 214.082031 150.8125 " clip-rule="nonzero"/></clipPath><clipPath id="73367f783a"><path d="M 214.082031 150.8125 L 234.621094 127.925781 L 255.832031 146.964844 L 235.292969 169.847656 Z M 214.082031 150.8125 " clip-rule="nonzero"/></clipPath><clipPath id="21b7c182ae"><path d="M 118 215 L 142 215 L 142 237 L 118 237 Z M 118 215 " clip-rule="nonzero"/></clipPath><clipPath id="e573cd1224"><path d="M 118.902344 215.675781 L 142.148438 216.140625 L 141.726562 237.136719 L 118.480469 236.671875 Z M 118.902344 215.675781 " clip-rule="nonzero"/></clipPath><clipPath id="e83f2b5f72"><path d="M 118.902344 215.675781 L 142.148438 216.140625 L 141.726562 237.136719 L 118.480469 236.671875 Z M 118.902344 215.675781 " clip-rule="nonzero"/></clipPath></defs><g clip-path="url(#6fd4549bd5)"><g clip-path="url(#0a5721c447)"><g clip-path="url(#73367f783a)"><path fill="#052944" d="M 221.761719 146.839844 C 221.691406 146.933594 221.605469 147.019531 221.511719 147.09375 C 221.417969 147.167969 221.316406 147.230469 221.203125 147.277344 C 221.09375 147.328125 220.980469 147.363281 220.863281 147.382812 C 220.742188 147.40625 220.625 147.410156 220.503906 147.402344 C 220.382812 147.394531 220.265625 147.371094 220.152344 147.335938 C 220.039062 147.296875 219.929688 147.246094 219.828125 147.179688 C 219.726562 147.117188 219.636719 147.042969 219.550781 146.953125 C 219.46875 146.867188 219.398438 146.769531 219.339844 146.667969 C 219.277344 146.5625 219.234375 146.453125 219.203125 146.335938 C 219.167969 146.21875 219.152344 146.101562 219.148438 145.980469 C 219.144531 145.859375 219.15625 145.742188 219.183594 145.625 C 219.210938 145.507812 219.25 145.394531 219.304688 145.289062 C 219.359375 145.179688 219.425781 145.082031 219.507812 144.992188 C 219.585938 144.898438 219.671875 144.820312 219.773438 144.75 C 219.871094 144.683594 219.976562 144.625 220.089844 144.582031 C 220.203125 144.539062 220.316406 144.511719 220.4375 144.496094 C 220.554688 144.484375 220.675781 144.484375 220.796875 144.5 C 220.914062 144.515625 221.03125 144.546875 221.140625 144.589844 C 221.253906 144.632812 221.359375 144.691406 221.457031 144.761719 C 221.554688 144.832031 221.644531 144.910156 221.71875 145.003906 C 221.796875 145.09375 221.863281 145.195312 221.917969 145.300781 C 221.96875 145.410156 222.007812 145.523438 222.035156 145.640625 C 222.058594 145.757812 222.070312 145.878906 222.066406 145.996094 C 222.0625 146.117188 222.042969 146.234375 222.011719 146.351562 L 234.421875 152.652344 L 241.8125 138.085938 C 241.71875 138.015625 241.632812 137.929688 241.558594 137.835938 C 241.484375 137.742188 241.421875 137.636719 241.371094 137.527344 C 241.324219 137.417969 241.289062 137.304688 241.269531 137.1875 C 241.246094 137.066406 241.242188 136.949219 241.25 136.828125 C 241.257812 136.707031 241.28125 136.589844 241.320312 136.476562 C 241.355469 136.363281 241.40625 136.253906 241.472656 136.152344 C 241.535156 136.050781 241.613281 135.957031 241.699219 135.875 C 241.785156 135.792969 241.882812 135.722656 241.984375 135.664062 C 242.089844 135.601562 242.203125 135.558594 242.316406 135.527344 C 242.433594 135.492188 242.550781 135.476562 242.671875 135.472656 C 242.792969 135.472656 242.910156 135.484375 243.027344 135.507812 C 243.144531 135.535156 243.257812 135.578125 243.363281 135.628906 C 243.472656 135.683594 243.570312 135.75 243.664062 135.832031 C 243.753906 135.910156 243.832031 136 243.902344 136.097656 C 243.972656 136.195312 244.027344 136.300781 244.070312 136.414062 C 244.113281 136.527344 244.140625 136.640625 244.15625 136.761719 C 244.167969 136.882812 244.167969 137 244.152344 137.121094 C 244.136719 137.238281 244.105469 137.355469 244.0625 137.46875 C 244.019531 137.578125 243.960938 137.683594 243.890625 137.78125 C 243.820312 137.878906 243.742188 137.96875 243.648438 138.046875 C 243.558594 138.125 243.457031 138.1875 243.351562 138.242188 C 243.242188 138.296875 243.128906 138.335938 243.011719 138.359375 C 242.894531 138.382812 242.773438 138.394531 242.65625 138.390625 C 242.535156 138.386719 242.417969 138.367188 242.300781 138.335938 L 235.191406 152.34375 L 245.359375 146.566406 C 245.320312 146.453125 245.296875 146.335938 245.289062 146.214844 C 245.277344 146.097656 245.28125 145.976562 245.300781 145.859375 C 245.320312 145.738281 245.355469 145.625 245.402344 145.515625 C 245.453125 145.40625 245.511719 145.300781 245.585938 145.207031 C 245.660156 145.113281 245.742188 145.027344 245.835938 144.953125 C 245.929688 144.878906 246.035156 144.816406 246.144531 144.765625 C 246.253906 144.71875 246.367188 144.683594 246.484375 144.660156 C 246.601562 144.640625 246.722656 144.632812 246.84375 144.640625 C 246.960938 144.652344 247.078125 144.671875 247.195312 144.710938 C 247.308594 144.75 247.417969 144.800781 247.519531 144.863281 C 247.621094 144.925781 247.710938 145.003906 247.796875 145.089844 C 247.878906 145.175781 247.949219 145.273438 248.007812 145.375 C 248.066406 145.480469 248.113281 145.589844 248.144531 145.707031 C 248.179688 145.824219 248.195312 145.941406 248.199219 146.0625 C 248.203125 146.183594 248.191406 146.300781 248.164062 146.417969 C 248.136719 146.535156 248.097656 146.648438 248.042969 146.753906 C 247.988281 146.863281 247.921875 146.960938 247.84375 147.050781 C 247.765625 147.144531 247.675781 147.222656 247.578125 147.292969 C 247.476562 147.359375 247.375 147.417969 247.261719 147.460938 C 247.148438 147.503906 247.03125 147.53125 246.914062 147.546875 C 246.792969 147.558594 246.675781 147.558594 246.554688 147.542969 C 246.4375 147.527344 246.320312 147.5 246.207031 147.453125 C 246.097656 147.410156 245.992188 147.355469 245.894531 147.285156 C 245.796875 147.214844 245.707031 147.132812 245.628906 147.042969 L 235.527344 152.78125 L 245.921875 152.21875 C 245.9375 152.101562 245.96875 151.984375 246.011719 151.875 C 246.054688 151.761719 246.113281 151.65625 246.183594 151.558594 C 246.253906 151.460938 246.335938 151.375 246.429688 151.296875 C 246.519531 151.222656 246.621094 151.15625 246.730469 151.101562 C 246.835938 151.050781 246.949219 151.011719 247.066406 150.988281 C 247.1875 150.964844 247.304688 150.953125 247.425781 150.957031 C 247.546875 150.964844 247.664062 150.984375 247.777344 151.015625 C 247.894531 151.050781 248.003906 151.097656 248.105469 151.160156 C 248.210938 151.21875 248.304688 151.292969 248.390625 151.378906 C 248.476562 151.460938 248.550781 151.554688 248.613281 151.65625 C 248.675781 151.761719 248.722656 151.871094 248.761719 151.984375 C 248.796875 152.097656 248.816406 152.21875 248.824219 152.335938 C 248.828125 152.457031 248.820312 152.578125 248.796875 152.695312 C 248.773438 152.8125 248.738281 152.925781 248.6875 153.035156 C 248.636719 153.144531 248.574219 153.246094 248.496094 153.339844 C 248.421875 153.429688 248.335938 153.515625 248.238281 153.585938 C 248.140625 153.65625 248.039062 153.714844 247.925781 153.761719 C 247.816406 153.808594 247.699219 153.839844 247.582031 153.859375 C 247.460938 153.875 247.34375 153.878906 247.222656 153.867188 C 247.105469 153.855469 246.988281 153.828125 246.875 153.789062 C 246.761719 153.75 246.65625 153.695312 246.554688 153.628906 C 246.453125 153.5625 246.363281 153.484375 246.285156 153.394531 C 246.203125 153.304688 246.132812 153.207031 246.078125 153.101562 C 246.023438 152.996094 245.980469 152.882812 245.949219 152.765625 L 235.734375 153.316406 L 242.988281 156.996094 C 243.0625 156.902344 243.144531 156.816406 243.238281 156.742188 C 243.335938 156.667969 243.4375 156.605469 243.546875 156.558594 C 243.65625 156.507812 243.769531 156.472656 243.886719 156.453125 C 244.007812 156.433594 244.125 156.425781 244.246094 156.433594 C 244.367188 156.441406 244.484375 156.464844 244.597656 156.503906 C 244.710938 156.542969 244.820312 156.59375 244.921875 156.65625 C 245.023438 156.722656 245.113281 156.796875 245.199219 156.882812 C 245.28125 156.972656 245.351562 157.066406 245.410156 157.171875 C 245.46875 157.277344 245.515625 157.386719 245.546875 157.503906 C 245.582031 157.617188 245.597656 157.734375 245.601562 157.855469 C 245.601562 157.976562 245.589844 158.09375 245.566406 158.210938 C 245.539062 158.328125 245.496094 158.441406 245.441406 158.550781 C 245.390625 158.65625 245.320312 158.753906 245.242188 158.847656 C 245.164062 158.9375 245.074219 159.015625 244.976562 159.085938 C 244.878906 159.15625 244.773438 159.210938 244.660156 159.253906 C 244.546875 159.296875 244.433594 159.324219 244.3125 159.339844 C 244.191406 159.351562 244.074219 159.351562 243.953125 159.335938 C 243.835938 159.320312 243.71875 159.292969 243.609375 159.246094 C 243.496094 159.203125 243.390625 159.144531 243.292969 159.078125 C 243.195312 159.007812 243.109375 158.925781 243.03125 158.832031 C 242.953125 158.742188 242.886719 158.640625 242.832031 158.535156 C 242.78125 158.425781 242.742188 158.3125 242.714844 158.195312 C 242.691406 158.078125 242.679688 157.960938 242.683594 157.839844 C 242.6875 157.71875 242.707031 157.601562 242.738281 157.484375 L 234.664062 153.386719 L 230.5625 161.464844 C 230.65625 161.535156 230.742188 161.621094 230.816406 161.714844 C 230.890625 161.808594 230.953125 161.914062 231.003906 162.023438 C 231.050781 162.132812 231.085938 162.246094 231.105469 162.363281 C 231.128906 162.484375 231.132812 162.601562 231.125 162.722656 C 231.117188 162.84375 231.09375 162.957031 231.054688 163.074219 C 231.019531 163.1875 230.96875 163.296875 230.902344 163.398438 C 230.839844 163.5 230.765625 163.589844 230.675781 163.675781 C 230.589844 163.757812 230.492188 163.828125 230.390625 163.886719 C 230.285156 163.945312 230.175781 163.992188 230.058594 164.023438 C 229.941406 164.054688 229.824219 164.074219 229.703125 164.078125 C 229.582031 164.078125 229.464844 164.066406 229.347656 164.039062 C 229.230469 164.015625 229.117188 163.972656 229.011719 163.917969 C 228.902344 163.863281 228.804688 163.796875 228.714844 163.71875 C 228.621094 163.640625 228.542969 163.550781 228.472656 163.453125 C 228.40625 163.355469 228.347656 163.25 228.308594 163.136719 C 228.265625 163.023438 228.234375 162.90625 228.222656 162.789062 C 228.207031 162.667969 228.207031 162.550781 228.222656 162.429688 C 228.238281 162.3125 228.269531 162.195312 228.3125 162.082031 C 228.355469 161.972656 228.414062 161.867188 228.484375 161.769531 C 228.554688 161.671875 228.632812 161.582031 228.726562 161.503906 C 228.816406 161.429688 228.917969 161.363281 229.027344 161.308594 C 229.132812 161.257812 229.246094 161.214844 229.363281 161.191406 C 229.480469 161.167969 229.601562 161.15625 229.71875 161.160156 C 229.839844 161.164062 229.957031 161.183594 230.074219 161.214844 L 233.878906 153.71875 L 228.292969 156.890625 C 228.332031 157.007812 228.355469 157.125 228.363281 157.242188 C 228.375 157.363281 228.371094 157.480469 228.351562 157.601562 C 228.332031 157.71875 228.296875 157.835938 228.25 157.945312 C 228.203125 158.054688 228.140625 158.15625 228.066406 158.253906 C 227.992188 158.347656 227.910156 158.433594 227.816406 158.507812 C 227.722656 158.582031 227.621094 158.644531 227.507812 158.695312 C 227.398438 158.742188 227.285156 158.78125 227.167969 158.800781 C 227.050781 158.820312 226.929688 158.828125 226.808594 158.820312 C 226.691406 158.8125 226.574219 158.789062 226.457031 158.75 C 226.34375 158.714844 226.234375 158.664062 226.132812 158.601562 C 226.03125 158.535156 225.9375 158.460938 225.855469 158.375 C 225.773438 158.285156 225.703125 158.191406 225.640625 158.085938 C 225.582031 157.980469 225.535156 157.871094 225.503906 157.753906 C 225.472656 157.640625 225.453125 157.519531 225.453125 157.402344 C 225.449219 157.28125 225.460938 157.160156 225.484375 157.042969 C 225.511719 156.925781 225.554688 156.816406 225.605469 156.707031 C 225.660156 156.601562 225.726562 156.5 225.804688 156.410156 C 225.886719 156.320312 225.972656 156.238281 226.070312 156.167969 C 226.171875 156.101562 226.277344 156.042969 226.386719 156 C 226.5 155.957031 226.617188 155.929688 226.734375 155.914062 C 226.855469 155.902344 226.976562 155.902344 227.09375 155.917969 C 227.214844 155.929688 227.328125 155.960938 227.441406 156.003906 C 227.554688 156.046875 227.660156 156.105469 227.757812 156.175781 C 227.855469 156.246094 227.941406 156.324219 228.019531 156.417969 L 233.238281 153.453125 L 222.460938 154.035156 C 222.441406 154.152344 222.414062 154.269531 222.367188 154.378906 C 222.324219 154.492188 222.265625 154.597656 222.195312 154.695312 C 222.125 154.792969 222.042969 154.878906 221.949219 154.957031 C 221.859375 155.035156 221.757812 155.097656 221.648438 155.152344 C 221.542969 155.203125 221.429688 155.242188 221.3125 155.265625 C 221.195312 155.289062 221.074219 155.300781 220.953125 155.296875 C 220.835938 155.292969 220.714844 155.273438 220.601562 155.238281 C 220.484375 155.203125 220.375 155.15625 220.273438 155.09375 C 220.167969 155.035156 220.074219 154.960938 219.988281 154.875 C 219.902344 154.792969 219.828125 154.699219 219.765625 154.597656 C 219.703125 154.492188 219.65625 154.382812 219.621094 154.269531 C 219.585938 154.15625 219.5625 154.035156 219.558594 153.917969 C 219.550781 153.796875 219.558594 153.679688 219.582031 153.558594 C 219.605469 153.441406 219.640625 153.328125 219.691406 153.21875 C 219.742188 153.109375 219.808594 153.007812 219.882812 152.917969 C 219.960938 152.824219 220.046875 152.742188 220.140625 152.667969 C 220.238281 152.597656 220.34375 152.539062 220.453125 152.492188 C 220.5625 152.445312 220.679688 152.414062 220.796875 152.394531 C 220.917969 152.378906 221.035156 152.375 221.15625 152.386719 C 221.277344 152.398438 221.390625 152.425781 221.503906 152.464844 C 221.617188 152.503906 221.726562 152.558594 221.824219 152.625 C 221.925781 152.691406 222.015625 152.769531 222.097656 152.859375 C 222.175781 152.949219 222.246094 153.046875 222.300781 153.152344 C 222.359375 153.257812 222.402344 153.371094 222.429688 153.488281 L 233.667969 152.882812 Z M 221.761719 146.839844 " fill-opacity="1" fill-rule="evenodd"/></g></g></g><g fill="#0e2b0d" fill-opacity="1"><g transform="translate(77.228939, 207.700778)"><g><path d="M 27.5 -12.953125 L 13.9375 -14.46875 L 12.171875 1.359375 L 3.484375 0.390625 L 7.890625 -39 L 30.71875 -36.453125 L 29.84375 -28.578125 L 15.703125 -30.15625 L 14.828125 -22.34375 L 28.390625 -20.828125 Z M 27.5 -12.953125 "/></g></g></g><g fill="#0e2b0d" fill-opacity="1"><g transform="translate(107.250271, 211.031145)"><g><path d="M 3.484375 0.25 L 6.25 -39.296875 L 14.984375 -38.6875 L 12.765625 -7.046875 L 26.953125 -6.0625 L 26.40625 1.84375 Z M 3.484375 0.25 "/></g></g></g><g fill="#0e2b0d" fill-opacity="1"><g transform="translate(136.519316, 213.071951)"><g><path d="M 26.671875 -7.1875 L 26.453125 0.734375 L 3.5 0.09375 L 4.59375 -39.53125 L 27.546875 -38.890625 L 27.328125 -30.96875 L 13.125 -31.359375 L 12.90625 -23.484375 L 26.53125 -23.109375 L 26.3125 -15.203125 L 12.6875 -15.578125 L 12.46875 -7.578125 Z M 26.671875 -7.1875 "/></g></g></g><g fill="#0e2b0d" fill-opacity="1"><g transform="translate(167.456066, 214.01227)"><g><path d="M 38.578125 -0.84375 L 27.921875 -0.609375 L 19.171875 -14.1875 L 11.015625 -0.25 L 0.34375 0 L 13.671875 -20.140625 L -0.53125 -39.625 L 10.140625 -39.875 L 18.890625 -26.3125 L 27.046875 -40.234375 L 37.703125 -40.46875 L 24.390625 -20.375 Z M 38.578125 -0.84375 "/></g></g></g><g fill="#0e2b0d" fill-opacity="1"><g transform="translate(207.592633, 213.18086)"><g><path d="M 32.359375 -22.625 C 32.191406 -24.675781 31.488281 -26.535156 30.25 -28.203125 C 29.019531 -29.878906 27.476562 -31.179688 25.625 -32.109375 C 23.769531 -33.046875 21.816406 -33.429688 19.765625 -33.265625 C 17.753906 -33.097656 15.898438 -32.398438 14.203125 -31.171875 C 12.515625 -29.953125 11.203125 -28.414062 10.265625 -26.5625 C 9.328125 -24.707031 8.941406 -22.753906 9.109375 -20.703125 C 9.273438 -18.679688 9.972656 -16.820312 11.203125 -15.125 C 12.441406 -13.4375 13.992188 -12.113281 15.859375 -11.15625 C 17.734375 -10.195312 19.675781 -9.800781 21.6875 -9.96875 C 23.738281 -10.132812 25.601562 -10.84375 27.28125 -12.09375 C 28.957031 -13.34375 30.265625 -14.90625 31.203125 -16.78125 C 32.140625 -18.65625 32.523438 -20.601562 32.359375 -22.625 Z M 41.078125 -23.296875 C 41.296875 -20.578125 40.960938 -17.941406 40.078125 -15.390625 C 39.191406 -12.835938 37.890625 -10.546875 36.171875 -8.515625 C 34.453125 -6.484375 32.414062 -4.820312 30.0625 -3.53125 C 27.707031 -2.25 25.15625 -1.492188 22.40625 -1.265625 C 19.695312 -1.046875 17.066406 -1.375 14.515625 -2.25 C 11.972656 -3.132812 9.6875 -4.4375 7.65625 -6.15625 C 5.625 -7.882812 3.960938 -9.929688 2.671875 -12.296875 C 1.390625 -14.671875 0.640625 -17.21875 0.421875 -19.9375 C 0.191406 -22.675781 0.515625 -25.3125 1.390625 -27.84375 C 2.273438 -30.375 3.578125 -32.65625 5.296875 -34.6875 C 7.015625 -36.71875 9.054688 -38.375 11.421875 -39.65625 C 13.796875 -40.945312 16.335938 -41.703125 19.046875 -41.921875 C 21.796875 -42.148438 24.4375 -41.820312 26.96875 -40.9375 C 29.5 -40.0625 31.78125 -38.757812 33.8125 -37.03125 C 35.84375 -35.3125 37.503906 -33.273438 38.796875 -30.921875 C 40.085938 -28.578125 40.847656 -26.035156 41.078125 -23.296875 Z M 41.078125 -23.296875 "/></g></g></g><g fill="#0e2b0d" fill-opacity="1"><g transform="translate(253.34644, 209.157534)"><g><path d="M 3.46875 -0.46875 L -1.875 -39.75 L 6.796875 -40.9375 L 11.078125 -9.5 L 25.171875 -11.40625 L 26.234375 -3.5625 Z M 3.46875 -0.46875 "/></g></g></g><g fill="#dc1fff" fill-opacity="1"><g transform="translate(282.207389, 205.120187)"><g><path d="M 2.234375 -4.921875 C 1.992188 -6.335938 2.28125 -7.617188 3.09375 -8.765625 C 3.90625 -9.910156 5.019531 -10.601562 6.4375 -10.84375 C 7.820312 -11.082031 9.09375 -10.796875 10.25 -9.984375 C 11.414062 -9.171875 12.117188 -8.054688 12.359375 -6.640625 C 12.585938 -5.265625 12.285156 -4.003906 11.453125 -2.859375 C 10.628906 -1.722656 9.523438 -1.035156 8.140625 -0.796875 C 6.722656 -0.554688 5.441406 -0.835938 4.296875 -1.640625 C 3.148438 -2.453125 2.460938 -3.546875 2.234375 -4.921875 Z M 2.234375 -4.921875 "/></g></g></g><g clip-path="url(#21b7c182ae)"><g clip-path="url(#e573cd1224)"><g clip-path="url(#e83f2b5f72)"><path fill="#052944" d="M 124.832031 218.058594 C 124.652344 218.066406 124.480469 218.035156 124.316406 217.957031 C 124.152344 217.882812 124.015625 217.769531 123.910156 217.625 C 123.800781 217.480469 123.734375 217.320312 123.707031 217.140625 C 123.679688 216.960938 123.695312 216.789062 123.757812 216.617188 C 123.820312 216.449219 123.917969 216.300781 124.050781 216.179688 C 124.183594 216.058594 124.339844 215.976562 124.515625 215.933594 C 124.691406 215.890625 124.863281 215.890625 125.039062 215.9375 C 125.214844 215.980469 125.367188 216.0625 125.503906 216.1875 C 125.636719 216.308594 125.730469 216.453125 125.792969 216.625 C 125.851562 216.796875 125.867188 216.96875 125.839844 217.148438 C 125.8125 217.328125 125.742188 217.488281 125.632812 217.632812 C 125.523438 217.777344 125.386719 217.886719 125.222656 217.960938 L 127.6875 227.949219 L 139.40625 225.058594 C 139.394531 224.878906 139.429688 224.707031 139.503906 224.542969 C 139.582031 224.378906 139.691406 224.246094 139.839844 224.136719 C 139.984375 224.027344 140.144531 223.960938 140.324219 223.933594 C 140.503906 223.910156 140.675781 223.925781 140.847656 223.988281 C 141.015625 224.046875 141.160156 224.144531 141.28125 224.28125 C 141.402344 224.414062 141.484375 224.566406 141.53125 224.742188 C 141.574219 224.917969 141.570312 225.09375 141.527344 225.269531 C 141.484375 225.445312 141.398438 225.597656 141.277344 225.730469 C 141.15625 225.863281 141.007812 225.960938 140.839844 226.019531 C 140.667969 226.078125 140.492188 226.097656 140.316406 226.066406 C 140.136719 226.039062 139.976562 225.972656 139.832031 225.863281 C 139.6875 225.753906 139.578125 225.617188 139.503906 225.453125 L 128.230469 228.230469 L 136.371094 231.136719 C 136.460938 230.980469 136.585938 230.855469 136.738281 230.761719 C 136.890625 230.667969 137.058594 230.617188 137.238281 230.605469 C 137.421875 230.597656 137.59375 230.628906 137.753906 230.707031 C 137.917969 230.785156 138.054688 230.894531 138.164062 231.039062 C 138.269531 231.183594 138.335938 231.34375 138.363281 231.523438 C 138.390625 231.703125 138.375 231.875 138.3125 232.046875 C 138.253906 232.214844 138.15625 232.359375 138.023438 232.480469 C 137.886719 232.601562 137.734375 232.6875 137.558594 232.730469 C 137.382812 232.773438 137.207031 232.773438 137.035156 232.726562 C 136.859375 232.683594 136.703125 232.601562 136.570312 232.480469 C 136.4375 232.355469 136.34375 232.210938 136.28125 232.039062 C 136.222656 231.871094 136.207031 231.695312 136.234375 231.519531 L 128.148438 228.632812 L 133.476562 234.179688 C 133.625 234.082031 133.792969 234.023438 133.972656 234.007812 C 134.152344 233.992188 134.324219 234.019531 134.492188 234.09375 C 134.65625 234.164062 134.796875 234.269531 134.90625 234.414062 C 135.019531 234.554688 135.09375 234.714844 135.125 234.890625 C 135.15625 235.070312 135.144531 235.242188 135.089844 235.414062 C 135.035156 235.585938 134.941406 235.734375 134.808594 235.859375 C 134.679688 235.984375 134.527344 236.070312 134.355469 236.121094 C 134.179688 236.167969 134.003906 236.175781 133.828125 236.136719 C 133.652344 236.097656 133.496094 236.015625 133.359375 235.898438 C 133.222656 235.78125 133.121094 235.636719 133.058594 235.46875 C 132.992188 235.300781 132.972656 235.128906 132.992188 234.949219 C 133.015625 234.769531 133.078125 234.605469 133.183594 234.457031 L 127.945312 229.007812 L 129.386719 234.84375 C 129.566406 234.832031 129.738281 234.867188 129.902344 234.941406 C 130.0625 235.019531 130.199219 235.128906 130.308594 235.273438 C 130.414062 235.417969 130.484375 235.582031 130.507812 235.761719 C 130.535156 235.9375 130.519531 236.113281 130.457031 236.28125 C 130.398438 236.453125 130.300781 236.597656 130.164062 236.71875 C 130.03125 236.839844 129.875 236.921875 129.703125 236.964844 C 129.527344 237.007812 129.351562 237.007812 129.175781 236.964844 C 129 236.917969 128.847656 236.835938 128.714844 236.714844 C 128.582031 236.589844 128.484375 236.445312 128.425781 236.273438 C 128.367188 236.105469 128.351562 235.929688 128.378906 235.75 C 128.40625 235.574219 128.472656 235.414062 128.582031 235.269531 C 128.691406 235.125 128.828125 235.015625 128.992188 234.9375 L 127.390625 228.4375 L 120.890625 230.039062 C 120.898438 230.222656 120.867188 230.394531 120.789062 230.554688 C 120.710938 230.71875 120.601562 230.855469 120.457031 230.964844 C 120.3125 231.070312 120.152344 231.136719 119.972656 231.164062 C 119.792969 231.191406 119.621094 231.175781 119.449219 231.113281 C 119.28125 231.050781 119.132812 230.953125 119.011719 230.820312 C 118.890625 230.6875 118.808594 230.53125 118.765625 230.355469 C 118.722656 230.183594 118.722656 230.007812 118.769531 229.832031 C 118.8125 229.65625 118.898438 229.503906 119.019531 229.371094 C 119.140625 229.238281 119.285156 229.140625 119.457031 229.082031 C 119.628906 229.019531 119.800781 229.003906 119.980469 229.035156 C 120.160156 229.0625 120.320312 229.128906 120.464844 229.238281 C 120.609375 229.347656 120.71875 229.484375 120.792969 229.648438 L 126.828125 228.160156 L 122.351562 226.5625 C 122.261719 226.71875 122.140625 226.84375 121.984375 226.9375 C 121.832031 227.03125 121.664062 227.085938 121.484375 227.09375 C 121.304688 227.105469 121.132812 227.070312 120.96875 226.996094 C 120.804688 226.917969 120.667969 226.808594 120.558594 226.664062 C 120.449219 226.519531 120.382812 226.359375 120.355469 226.179688 C 120.328125 226 120.347656 225.828125 120.40625 225.65625 C 120.46875 225.488281 120.5625 225.339844 120.699219 225.21875 C 120.832031 225.097656 120.988281 225.015625 121.160156 224.972656 C 121.335938 224.929688 121.511719 224.929688 121.6875 224.972656 C 121.863281 225.015625 122.015625 225.101562 122.148438 225.222656 C 122.285156 225.34375 122.378906 225.488281 122.441406 225.660156 C 122.5 225.828125 122.515625 226.003906 122.488281 226.183594 L 126.667969 227.675781 L 121.140625 221.917969 C 120.988281 222.019531 120.820312 222.074219 120.640625 222.089844 C 120.460938 222.105469 120.289062 222.078125 120.125 222.003906 C 119.957031 221.933594 119.820312 221.828125 119.707031 221.6875 C 119.59375 221.542969 119.523438 221.386719 119.492188 221.207031 C 119.457031 221.03125 119.46875 220.855469 119.527344 220.683594 C 119.582031 220.511719 119.675781 220.363281 119.804688 220.238281 C 119.933594 220.113281 120.085938 220.027344 120.261719 219.976562 C 120.433594 219.929688 120.609375 219.925781 120.785156 219.964844 C 120.960938 220.003906 121.117188 220.082031 121.253906 220.199219 C 121.390625 220.316406 121.492188 220.460938 121.558594 220.628906 C 121.621094 220.796875 121.644531 220.972656 121.621094 221.148438 C 121.597656 221.328125 121.535156 221.492188 121.429688 221.640625 L 127.191406 227.640625 Z M 124.832031 218.058594 " fill-opacity="1" fill-rule="evenodd"/></g></g></g></svg>